<svg width="40" height="40" viewBox="0 0 40 40" fill="none" xmlns="http://www.w3.org/2000/svg">
<path d="M26.0309 12.7051L26.1445 12.9462L26.408 12.9863L38.1352 14.771C38.1355 14.7711 38.1357 14.7711 38.1359 14.7712C38.6583 14.8528 39.0515 15.3708 38.9647 15.9601L38.9639 15.9654C38.9322 16.1981 38.8278 16.4087 38.6723 16.5686C38.6721 16.5688 38.6719 16.569 38.6716 16.5693L30.1866 25.2321L30.0094 25.413L30.0504 25.6628L32.0552 37.8966L32.0553 37.897C32.1526 38.4879 31.7708 39.0154 31.2541 39.1087L31.2534 39.1088C31.0473 39.1464 30.8326 39.1118 30.6486 39.0092L30.6463 39.008L20.1555 33.2321L19.9144 33.0993L19.6732 33.2321L9.18242 39.008L9.18163 39.0084C9.02195 39.0967 8.84375 39.1355 8.66671 39.1222C8.48961 39.109 8.31739 39.044 8.16981 38.9318C8.02199 38.8193 7.90432 38.6635 7.83313 38.4799C7.76189 38.2961 7.74094 38.094 7.77345 37.8973L7.77355 37.8966L9.7784 25.6628L9.81935 25.413L9.64218 25.2321L1.15622 16.5683L1.15619 16.5683C0.967523 16.3757 0.855631 16.1078 0.852019 15.8222C0.84841 15.5369 0.95327 15.266 1.13698 15.0679C1.28968 14.905 1.48396 14.8024 1.69064 14.7715L1.6919 14.7713L13.4207 12.9863L13.6842 12.9462L13.7978 12.7051L19.0398 1.57657C19.04 1.57621 19.0401 1.57584 19.0403 1.57548C19.2907 1.05265 19.8757 0.86347 20.3407 1.10387L20.3413 1.10418C20.5313 1.20209 20.6899 1.36576 20.7876 1.57378L20.7878 1.5742L26.0309 12.7051Z" stroke="#EAEAEA"/>
<mask id="mask0_5193_2103" style="mask-type:alpha" maskUnits="userSpaceOnUse" x="0" y="0" width="21" height="40">
<rect x="0.5" y="1.00006" width="19.4386" height="38.1247" fill="#FFC107" stroke="#FFC107"/>
</mask>
<g mask="url(#mask0_5193_2103)">
<path d="M26.0309 12.7051L26.1445 12.9462L26.408 12.9863L38.1352 14.771C38.1355 14.7711 38.1357 14.7711 38.1359 14.7712C38.6583 14.8528 39.0515 15.3708 38.9647 15.9601L38.9639 15.9654C38.9322 16.1981 38.8278 16.4087 38.6723 16.5686C38.6721 16.5688 38.6719 16.569 38.6716 16.5693L30.1866 25.2321L30.0094 25.413L30.0504 25.6628L32.0552 37.8966L32.0553 37.897C32.1526 38.4879 31.7708 39.0154 31.2541 39.1087L31.2534 39.1088C31.0473 39.1464 30.8326 39.1118 30.6486 39.0092L30.6463 39.008L20.1555 33.2321L19.9144 33.0993L19.6732 33.2321L9.18242 39.008L9.18163 39.0084C9.02195 39.0967 8.84375 39.1355 8.66671 39.1222C8.48961 39.109 8.31739 39.044 8.16981 38.9318C8.02199 38.8193 7.90432 38.6635 7.83313 38.4799C7.76189 38.2961 7.74094 38.094 7.77345 37.8973L7.77355 37.8966L9.7784 25.6628L9.81935 25.413L9.64218 25.2321L1.15622 16.5683L1.15619 16.5683C0.967523 16.3757 0.855631 16.1078 0.852019 15.8222C0.84841 15.5369 0.95327 15.266 1.13698 15.0679C1.28968 14.905 1.48396 14.8024 1.69064 14.7715L1.6919 14.7713L13.4207 12.9863L13.6842 12.9462L13.7978 12.7051L19.0398 1.57657C19.04 1.57621 19.0401 1.57584 19.0403 1.57548C19.2907 1.05265 19.8757 0.86347 20.3407 1.10387L20.3413 1.10418C20.5313 1.20209 20.6899 1.36576 20.7876 1.57378L20.7878 1.5742L26.0309 12.7051Z" fill="#FFC107" stroke="#FFC107"/>
</g>
</svg>
