<svg width="40" height="40" viewBox="0 0 40 40" fill="none" xmlns="http://www.w3.org/2000/svg">
<path d="M26.5298 12.2051L26.6434 12.4462L26.9069 12.4863L38.6341 14.271C38.6344 14.2711 38.6346 14.2711 38.6348 14.2712C39.1572 14.3528 39.5504 14.8708 39.4636 15.4601L39.4628 15.4654C39.4311 15.6981 39.3267 15.9087 39.1712 16.0686C39.171 16.0688 39.1708 16.069 39.1705 16.0693L30.6855 24.7321L30.5083 24.913L30.5493 25.1628L32.5541 37.3966L32.5542 37.397C32.6515 37.9879 32.2697 38.5154 31.753 38.6087L31.7523 38.6088C31.5463 38.6464 31.3315 38.6118 31.1475 38.5092L31.1452 38.508L20.6544 32.7321L20.4133 32.5993L20.1721 32.7321L9.68132 38.508L9.68054 38.5084C9.52085 38.5967 9.34265 38.6355 9.16561 38.6222C8.98851 38.609 8.81629 38.544 8.66871 38.4318C8.52089 38.3193 8.40323 38.1635 8.33203 37.9799C8.26079 37.7961 8.23984 37.594 8.27235 37.3973L8.27245 37.3966L10.2773 25.1628L10.3182 24.913L10.1411 24.7321L1.65512 16.0683L1.65509 16.0683C1.46642 15.8757 1.35453 15.6078 1.35092 15.3222C1.34731 15.0369 1.45217 14.766 1.63588 14.5679C1.78858 14.405 1.98286 14.3024 2.18954 14.2715L2.1908 14.2713L13.9196 12.4863L14.1831 12.4462L14.2967 12.2051L19.5387 1.07657C19.5389 1.07621 19.539 1.07584 19.5392 1.07548C19.7896 0.552646 20.3746 0.36347 20.8396 0.603873L20.8402 0.604178C21.0302 0.702094 21.1888 0.865761 21.2865 1.07378L21.2867 1.0742L26.5298 12.2051Z" stroke="#E8E8E8"/>
</svg>
