<svg width="15" height="7" viewBox="0 0 15 7" fill="none" xmlns="http://www.w3.org/2000/svg">
<path d="M7.00125 6.99944C6.7676 6.99989 6.54116 6.91852 6.36125 6.76944L0.361252 1.76944C0.157036 1.5997 0.0286112 1.35579 0.0042315 1.09136C-0.0201482 0.826934 0.0615137 0.563653 0.231252 0.359436C0.400991 0.155219 0.644902 0.0267955 0.909329 0.00241572C1.17375 -0.021964 1.43704 0.0596974 1.64125 0.229436L7.00125 4.70944L12.3613 0.389437C12.4635 0.306371 12.5812 0.244339 12.7076 0.206907C12.8339 0.169476 12.9664 0.157382 13.0974 0.171321C13.2285 0.18526 13.3554 0.224957 13.4711 0.288131C13.5867 0.351305 13.6887 0.43671 13.7713 0.539436C13.8628 0.642258 13.9322 0.762884 13.975 0.893758C14.0178 1.02463 14.0331 1.16293 14.0199 1.3C14.0068 1.43706 13.9655 1.56993 13.8986 1.69029C13.8317 1.81064 13.7407 1.91589 13.6313 1.99944L7.63125 6.82944C7.44617 6.95495 7.22435 7.01481 7.00125 6.99944Z" fill="#07484A"/>
</svg>
