<svg width="11" height="8" viewBox="0 0 11 8" fill="none" xmlns="http://www.w3.org/2000/svg">
<path fill-rule="evenodd" clip-rule="evenodd" d="M1.47913 4.00009C1.47913 3.88159 1.5262 3.76794 1.60999 3.68415C1.69379 3.60035 1.80743 3.55328 1.92594 3.55328L9.96853 3.55328C10.087 3.55328 10.2007 3.60035 10.2845 3.68414C10.3683 3.76794 10.4153 3.88159 10.4153 4.00009C10.4153 4.11859 10.3683 4.23224 10.2845 4.31603C10.2007 4.39982 10.087 4.4469 9.96853 4.4469L1.92594 4.4469C1.80744 4.4469 1.69379 4.39982 1.60999 4.31603C1.5262 4.23224 1.47913 4.11859 1.47913 4.00009Z" fill="#07484A"/>
<path fill-rule="evenodd" clip-rule="evenodd" d="M0.715984 4.31634C0.674374 4.27483 0.641361 4.22553 0.618836 4.17124C0.596311 4.11696 0.584716 4.05877 0.584716 4C0.584716 3.94123 0.596311 3.88303 0.618836 3.82875C0.641361 3.77447 0.674374 3.72516 0.715983 3.68365L3.39685 1.00279C3.48075 0.918892 3.59454 0.871758 3.71319 0.871758C3.83184 0.871758 3.94563 0.918892 4.02953 1.00279C4.11343 1.08669 4.16056 1.20048 4.16056 1.31913C4.16056 1.43778 4.11343 1.55158 4.02953 1.63547L1.66412 4L4.02953 6.36452C4.11343 6.44842 4.16056 6.56221 4.16056 6.68086C4.16056 6.79951 4.11343 6.9133 4.02953 6.9972C3.94563 7.0811 3.83184 7.12823 3.71319 7.12823C3.59454 7.12823 3.48075 7.0811 3.39685 6.9972L0.715984 4.31634Z" fill="#07484A"/>
</svg>
