<svg width="452" height="124" viewBox="0 0 452 124" fill="none" xmlns="http://www.w3.org/2000/svg">
<path d="M142.85 97.45H132.25V26.45H142.85V97.45Z" fill="#07484A"/>
<path d="M157.85 26.45H167.75L194.85 80.35L193.55 81.65V26.45H203.65V97.35H193.65L166.65 44.75L167.95 43.45V97.35H157.85V26.45Z" fill="#07484A"/>
<path d="M246.75 26.45H254.45L266.45 79.95L275.65 26.45H286.35L272.25 97.45H261.55L250.85 48.65L239.65 97.45H228.95L214.85 26.45H225.55L234.75 79.95L246.75 26.45Z" fill="#07484A"/>
<path d="M304.15 95.45C300.85 93.65 298.25 90.95 296.45 87.55C294.65 84.15 293.75 80.05 293.75 75.45V48.45C293.75 43.75 294.65 39.75 296.45 36.35C298.25 32.95 300.85 30.35 304.15 28.45C307.45 26.65 311.45 25.65 315.95 25.65C320.45 25.65 324.45 26.55 327.75 28.45C331.05 30.25 333.65 32.95 335.45 36.35C337.25 39.75 338.15 43.85 338.15 48.45V75.45C338.15 80.05 337.25 84.15 335.45 87.55C333.65 90.95 331.05 93.65 327.75 95.45C324.45 97.25 320.45 98.25 315.95 98.25C311.45 98.15 307.45 97.25 304.15 95.45ZM322.05 86.25C323.75 85.25 325.15 83.85 326.05 82.05C327.05 80.25 327.45 78.05 327.45 75.55V48.25C327.45 45.85 326.95 43.65 326.05 41.85C325.05 40.05 323.75 38.55 322.05 37.65C320.35 36.65 318.25 36.15 315.95 36.15C313.65 36.15 311.55 36.65 309.85 37.65C308.15 38.65 306.75 40.05 305.85 41.85C304.95 43.65 304.45 45.85 304.45 48.25V75.55C304.45 78.05 304.95 80.15 305.85 82.05C306.75 83.85 308.15 85.35 309.85 86.25C311.55 87.25 313.65 87.75 315.95 87.75C318.25 87.75 320.35 87.25 322.05 86.25Z" fill="#07484A"/>
<path d="M360.25 95.45C356.95 93.65 354.35 90.95 352.55 87.55C350.75 84.15 349.85 80.05 349.85 75.45V48.45C349.85 43.75 350.75 39.75 352.55 36.35C354.35 32.95 356.95 30.35 360.25 28.45C363.55 26.65 367.55 25.65 372.05 25.65C376.55 25.65 380.55 26.55 383.85 28.45C387.15 30.25 389.75 32.95 391.55 36.35C393.35 39.75 394.25 43.85 394.25 48.45V75.45C394.25 80.05 393.35 84.15 391.55 87.55C389.75 90.95 387.15 93.65 383.85 95.45C380.55 97.25 376.55 98.25 372.05 98.25C367.45 98.15 363.55 97.25 360.25 95.45ZM378.15 86.25C379.85 85.25 381.25 83.85 382.15 82.05C383.15 80.25 383.55 78.05 383.55 75.55V48.25C383.55 45.85 383.05 43.65 382.15 41.85C381.15 40.05 379.85 38.55 378.15 37.65C376.45 36.65 374.35 36.15 372.05 36.15C369.75 36.15 367.65 36.65 365.95 37.65C364.25 38.65 362.85 40.05 361.95 41.85C361.05 43.65 360.55 45.85 360.55 48.25V75.55C360.55 78.05 361.05 80.15 361.95 82.05C362.85 83.85 364.25 85.35 365.95 86.25C367.65 87.25 369.75 87.75 372.05 87.75C374.35 87.75 376.35 87.25 378.15 86.25Z" fill="#07484A"/>
<path d="M407.75 26.45H418.25V97.45H407.75V26.45ZM414.35 87.45H428.95C432.65 87.45 435.45 86.45 437.55 84.55C439.55 82.65 440.65 79.85 440.65 76.35V47.55C440.65 44.05 439.65 41.25 437.55 39.35C435.55 37.45 432.65 36.45 428.95 36.45H414.35V26.45H428.75C433.45 26.45 437.55 27.25 440.85 28.95C444.25 30.65 446.75 33.05 448.55 36.25C450.25 39.45 451.15 43.25 451.15 47.75V76.15C451.15 80.55 450.25 84.35 448.55 87.55C446.75 90.75 444.25 93.15 440.85 94.85C437.45 96.55 433.45 97.35 428.65 97.35H414.25V87.45H414.35Z" fill="#07484A"/>
<path d="M7.64998 0.450012H104.75C108.45 0.450012 111.55 3.45001 111.55 7.25001V116.75C111.55 120.45 108.55 123.55 104.75 123.55H7.64998C3.84998 123.45 0.849976 120.45 0.849976 116.65V7.25001C0.849976 3.45001 3.84998 0.450012 7.64998 0.450012Z" fill="#07484A"/>
<path fill-rule="evenodd" clip-rule="evenodd" d="M41.05 54.45C42.35 54.55 43.35 55.65 43.35 57.05C43.35 58.45 42.15 59.65 40.75 59.65H23.35L24.45 63.65C25.75 68.45 22.95 69.95 19.25 71.75C16.15 73.35 12.05 75.35 12.05 82.75C12.05 93.15 20.75 107.35 23.35 111.35H38.75V71.25C38.75 70.95 38.75 70.75 38.85 70.45C38.85 70.35 38.85 70.15 38.85 69.95C38.85 68.55 40.05 67.35 41.45 67.35H49.35V11.25C49.35 9.85001 50.55 8.65001 51.95 8.65001C53.35 8.65001 54.55 9.85001 54.55 11.25V55.75H102.15C103.55 55.75 104.75 56.95 104.75 58.35V70.15V114.05C104.75 115.45 103.55 116.65 102.15 116.65C100.75 116.65 99.55 115.45 99.55 114.05V79.65H54.55V113.95C54.55 115.35 53.35 116.55 51.95 116.55C50.55 116.55 49.35 115.35 49.35 113.95V72.65H43.95V113.95C43.95 115.35 42.75 116.55 41.35 116.55C41.25 116.55 41.15 116.55 41.05 116.55C40.95 116.55 40.85 116.55 40.75 116.55H21.05C19.65 116.55 18.45 115.35 18.45 113.95C18.45 113.75 18.45 113.55 18.55 113.45C15.25 108.15 6.84998 93.85 6.84998 82.75C6.84998 72.25 12.55 69.35 16.85 67.15C18.45 66.35 19.65 65.75 19.45 64.95L17.55 57.85C17.45 57.55 17.45 57.35 17.45 57.05C17.45 55.65 18.65 54.45 20.05 54.45H24.55C23.35 52.45 22.05 50.25 20.95 48.05C18.95 44.35 17.05 40.55 15.65 37.15C13.45 32.05 12.05 27.65 11.55 24.25C11.15 21.95 11.05 19.95 11.35 18.45C11.75 16.35 12.75 14.85 14.35 14.15C14.65 14.05 15.05 13.95 15.35 13.85C17.85 13.45 20.95 15.35 24.15 19.45C25.15 20.65 26.05 22.15 27.05 23.75C27.35 20.15 27.85 17.15 28.65 14.75C30.05 10.05 32.45 7.45001 35.45 7.45001C38.35 7.45001 40.75 10.05 42.25 14.75C43.35 18.25 44.05 23.25 44.05 29.45C44.05 34.15 43.65 39.65 42.95 44.65C42.45 48.25 41.75 51.75 41.05 54.45ZM21.75 74.55C20.45 75.75 19.35 77.15 18.45 78.95C17.75 80.45 17.35 82.25 17.35 84.25C17.35 93.75 26.25 106.65 26.25 106.75C26.75 107.55 27.85 107.75 28.65 107.25C29.45 106.75 29.65 105.65 29.15 104.85C29.15 104.85 20.85 92.75 20.85 84.35C20.85 82.85 21.15 81.65 21.65 80.55C22.25 79.25 23.15 78.15 24.15 77.25C24.85 76.65 24.85 75.55 24.25 74.85C23.65 74.15 22.45 73.95 21.75 74.55ZM54.55 76.25H99.55V72.65H54.55V76.25ZM54.55 67.45H99.55V60.85H54.55V67.45ZM29.25 52.35C28.75 50.05 28.25 47.35 27.85 44.55C27.45 41.45 27.15 38.15 26.95 35.05C24.65 29.65 22.25 25.45 20.05 22.65C18.25 20.35 16.95 19.15 16.15 19.05C16.15 19.05 16.25 19.15 16.25 19.45C16.05 20.35 16.15 21.75 16.45 23.45C16.95 26.45 18.25 30.45 20.25 35.15C21.65 38.45 23.45 42.05 25.35 45.65C26.65 47.95 27.95 50.25 29.25 52.35ZM35.15 54.45H35.55C36.45 51.85 37.15 48.15 37.75 43.95C38.35 39.15 38.75 33.95 38.75 29.35C38.75 23.75 38.15 19.25 37.25 16.15C36.55 13.85 35.85 12.55 35.35 12.55C34.85 12.55 34.15 13.85 33.45 16.15C32.55 19.25 31.95 23.65 31.95 29.35C31.95 33.85 32.35 39.05 32.95 43.75C33.55 48.05 34.35 51.85 35.15 54.45Z" fill="white"/>
</svg>
